# xmcd
#
# Track frame offsets: 
#        150
#        15305
#        30380
#        44627
#        60019
#        75663
#        90302
#        105421
#        120059
#        130447
#        145622
#        160697
#        174975
#        189731
#        205099
#
# Disc length: 2873 seconds
#
# Revision: 0
# Processed by: cddbd v1.5.2PL0 Copyright (c) Steve Scherf et al.
# Submitted via: ExactAudioCopy v0.99pb4
#
DISCID=a60b370f
DTITLE=Various Artist - СПЯВАЕМ РАЗАМ
DYEAR=2008
DGENRE=
TTITLE0=Спяваем разам
TTITLE1=Прыроды чысты храм
TTITLE2=Землякі
TTITLE3=Музыка
TTITLE4=Я артыстка
TTITLE5=Падары!..
TTITLE6=Не бывае неба лепшага
TTITLE7=Міншчына
TTITLE8=Як жаніўся камар
TTITLE9=Спяваем разам (-)
TTITLE10=Прыроды чысты храм (-)
TTITLE11=Землякі (-)
TTITLE12=Міншчына (-)
TTITLE13=Музыка (-)
TTITLE14=Як жаніўся камар (-)
EXTD=
EXTT0=
EXTT1=
EXTT2=
EXTT3=
EXTT4=
EXTT5=
EXTT6=
EXTT7=
EXTT8=
EXTT9=
EXTT10=
EXTT11=
EXTT12=
EXTT13=
EXTT14=
PLAYORDER=
